# xmcd
#
# Track frame offsets:
#	183
#	10560
#	25338
#	38913
#	60028
#	80553
#	96760
#	106415
#	128543
#	145543
#	160213
#	192305
#	214098
#	230623
#
# Disc length: 3238 seconds
#
# Revision: 1
# Processed by: cddbd v1.4PL0 Copyright (c) Steve Scherf et al.
# Submitted via: audiograbber 1.81.01
#
DISCID=a80ca40e
DTITLE=Red Rooster - Straight From The Heart
DYEAR=1900
DGENRE=Blues
TTITLE0=Red One
TTITLE1=Foolin' Me
TTITLE2=Jim's Cafe
TTITLE3=This Morning
TTITLE4=Love Is Gone
TTITLE5=The Blues Don't Care
TTITLE6=My Automobile
TTITLE7=I Found The Blues
TTITLE8=Little Dog
TTITLE9=I'm An Easy Man
TTITLE10=Cold Feeling
TTITLE11=Talking To The Blues
TTITLE12=TV Mama
TTITLE13=Tribute To CCR
EXTD=
EXTT0=
EXTT1=
EXTT2=
EXTT3=
EXTT4=
EXTT5=
EXTT6=
EXTT7=
EXTT8=
EXTT9=
EXTT10=
EXTT11=
EXTT12=
EXTT13=
PLAYORDER=
